<svg xmlns="http://www.w3.org/2000/svg" xmlns:xlink="http://www.w3.org/1999/xlink" width="500" zoomAndPan="magnify" viewBox="0 0 375 374.999991" height="500" preserveAspectRatio="xMidYMid meet" version="1.0"><defs><clipPath id="34ca98ee78"><path d="M 65.332031 65.332031 L 309.832031 65.332031 L 309.832031 309.832031 L 65.332031 309.832031 Z M 65.332031 65.332031 " clip-rule="nonzero"/></clipPath></defs><g clip-path="url(#34ca98ee78)"><path fill="#ffffff" d="M 298.257812 166.609375 C 292.761719 163.082031 290.867188 156.027344 293.863281 150.207031 C 297.742188 142.664062 297.542969 133.761719 293.28125 126.414062 C 289.035156 119.070312 281.445312 114.425781 272.957031 114.015625 C 266.417969 113.695312 261.273438 108.546875 260.953125 102.011719 C 260.539062 93.535156 255.914062 85.933594 248.550781 81.6875 C 241.191406 77.441406 232.304688 77.226562 224.761719 81.105469 C 218.957031 84.097656 211.902344 82.207031 208.359375 76.707031 C 203.792969 69.589844 195.988281 65.332031 187.5 65.332031 C 179.007812 65.332031 171.203125 69.589844 166.609375 76.738281 C 163.082031 82.234375 156.027344 84.128906 150.207031 81.136719 C 142.664062 77.242188 133.761719 77.457031 126.414062 81.703125 C 119.070312 85.945312 114.425781 93.535156 114.015625 102.027344 C 113.695312 108.5625 108.546875 113.710938 102.011719 114.03125 C 93.535156 114.441406 85.933594 119.070312 81.6875 126.429688 C 77.441406 133.777344 77.226562 142.679688 81.105469 150.222656 C 84.097656 156.027344 82.207031 163.082031 76.707031 166.625 C 69.589844 171.203125 65.332031 179.007812 65.332031 187.5 C 65.332031 195.988281 69.589844 203.792969 76.738281 208.390625 C 82.234375 211.917969 84.128906 218.972656 81.136719 224.789062 C 77.257812 232.335938 77.457031 241.238281 81.71875 248.582031 C 85.960938 255.929688 93.550781 260.570312 102.042969 260.984375 C 108.578125 261.304688 113.726562 266.449219 114.046875 272.984375 C 114.457031 281.460938 119.085938 289.066406 126.445312 293.3125 C 133.804688 297.558594 142.695312 297.769531 150.238281 293.890625 C 156.054688 290.898438 163.097656 292.792969 166.640625 298.289062 C 171.203125 305.40625 179.007812 309.667969 187.5 309.667969 C 195.988281 309.667969 203.792969 305.40625 208.390625 298.257812 C 211.917969 292.761719 218.972656 290.867188 224.789062 293.863281 C 232.335938 297.753906 241.238281 297.527344 248.582031 293.28125 C 255.929688 289.035156 260.570312 281.445312 260.984375 272.957031 C 261.304688 266.417969 266.449219 261.273438 272.984375 260.953125 C 281.460938 260.539062 289.066406 255.914062 293.3125 248.550781 C 297.558594 241.207031 297.769531 232.304688 293.890625 224.761719 C 290.898438 218.957031 292.792969 211.902344 298.289062 208.359375 C 305.40625 203.792969 309.667969 195.988281 309.667969 187.5 C 309.667969 179.007812 305.40625 171.203125 298.257812 166.609375 Z M 291.664062 198.113281 C 280.851562 205.074219 277.125 218.941406 283.019531 230.378906 C 285.019531 234.273438 284.914062 238.6875 282.730469 242.476562 C 280.546875 246.261719 276.773438 248.566406 272.40625 248.765625 C 259.5625 249.378906 249.40625 259.53125 248.78125 272.390625 C 248.566406 276.757812 246.277344 280.53125 242.488281 282.714844 C 238.703125 284.898438 234.289062 285.019531 230.394531 283.003906 C 218.957031 277.125 205.089844 280.835938 198.128906 291.648438 C 195.746094 295.34375 191.882812 297.449219 187.5 297.449219 C 183.117188 297.449219 179.253906 295.34375 176.886719 291.664062 C 172.152344 284.300781 164.226562 280.238281 156.039062 280.238281 C 152.191406 280.238281 148.28125 281.140625 144.617188 283.019531 C 140.722656 285.019531 136.324219 284.929688 132.523438 282.730469 C 128.734375 280.546875 126.429688 276.773438 126.230469 272.40625 C 125.621094 259.5625 115.464844 249.40625 102.609375 248.78125 C 98.238281 248.566406 94.46875 246.277344 92.285156 242.488281 C 90.101562 238.703125 89.992188 234.289062 91.996094 230.394531 C 97.890625 218.957031 94.164062 205.089844 83.351562 198.128906 C 79.65625 195.746094 77.546875 191.882812 77.546875 187.5 C 77.546875 183.117188 79.65625 179.253906 83.335938 176.886719 C 94.148438 169.921875 97.875 156.054688 91.980469 144.617188 C 89.976562 140.722656 90.085938 136.3125 92.269531 132.523438 C 94.453125 128.734375 98.226562 126.429688 102.59375 126.230469 C 115.433594 125.621094 125.589844 115.464844 126.214844 102.609375 C 126.429688 98.238281 128.722656 94.46875 132.507812 92.285156 C 136.3125 90.101562 140.707031 89.992188 144.601562 91.996094 C 156.039062 97.890625 169.90625 94.164062 176.871094 83.351562 C 179.253906 79.65625 183.117188 77.546875 187.5 77.546875 C 191.882812 77.546875 195.746094 79.65625 198.113281 83.335938 C 205.074219 94.148438 218.941406 97.859375 230.378906 91.980469 C 234.273438 89.976562 238.671875 90.085938 242.476562 92.269531 C 246.261719 94.453125 248.566406 98.226562 248.765625 102.59375 C 249.378906 115.433594 259.53125 125.589844 272.390625 126.214844 C 276.757812 126.429688 280.53125 128.722656 282.714844 132.507812 C 284.898438 136.296875 285.003906 140.707031 283.003906 144.601562 C 277.109375 156.039062 280.835938 169.90625 291.648438 176.871094 C 295.34375 179.253906 297.449219 183.117188 297.449219 187.5 C 297.449219 191.882812 295.34375 195.746094 291.664062 198.113281 Z M 242.476562 154.421875 L 232.792969 144.742188 C 228.027344 139.976562 220.269531 139.976562 215.519531 144.742188 L 175.28125 184.964844 L 159.492188 169.175781 C 154.726562 164.410156 146.96875 164.410156 142.21875 169.175781 L 132.523438 178.855469 C 127.757812 183.621094 127.757812 191.363281 132.523438 196.128906 L 162.332031 225.9375 C 165.90625 229.507812 170.59375 231.296875 175.28125 231.296875 C 179.96875 231.296875 184.660156 229.507812 188.230469 225.9375 L 242.476562 171.707031 C 247.238281 166.945312 247.238281 159.1875 242.476562 154.421875 Z M 179.605469 217.308594 C 177.222656 219.691406 173.34375 219.691406 170.960938 217.308594 L 141.167969 187.5 L 150.847656 177.816406 L 170.960938 197.929688 C 173.34375 200.3125 177.207031 200.3125 179.605469 197.929688 L 224.148438 153.382812 L 233.832031 163.066406 Z M 167.523438 264.617188 C 166.652344 267.152344 164.289062 268.757812 161.753906 268.757812 C 161.09375 268.757812 160.421875 268.648438 159.765625 268.421875 C 125.207031 256.570312 101.980469 224.058594 101.980469 187.5 C 101.980469 145.367188 132.109375 109.875 173.632812 103.097656 C 176.992188 102.5625 180.109375 104.804688 180.640625 108.136719 C 181.191406 111.464844 178.933594 114.609375 175.601562 115.144531 C 140.023438 120.964844 114.199219 151.382812 114.199219 187.5 C 114.199219 218.835938 134.113281 246.703125 163.738281 256.859375 C 166.929688 257.960938 168.625 261.425781 167.523438 264.617188 Z M 187.5 266.910156 C 187.5 270.28125 184.765625 273.015625 181.390625 273.015625 C 178.015625 273.015625 175.28125 270.28125 175.28125 266.910156 C 175.28125 263.535156 178.015625 260.800781 181.390625 260.800781 C 184.765625 260.800781 187.5 263.535156 187.5 266.910156 Z M 273.015625 187.5 C 273.015625 229.632812 242.886719 265.121094 201.363281 271.902344 C 201.027344 271.964844 200.691406 271.976562 200.371094 271.976562 C 197.425781 271.976562 194.84375 269.855469 194.355469 266.847656 C 193.804688 263.519531 196.066406 260.371094 199.394531 259.835938 C 234.976562 254.035156 260.800781 223.613281 260.800781 187.5 C 260.800781 156.164062 240.886719 128.292969 211.261719 118.136719 C 208.070312 117.054688 206.375 113.570312 207.457031 110.378906 C 208.542969 107.1875 212.023438 105.480469 215.214844 106.578125 C 249.789062 118.429688 273.015625 150.941406 273.015625 187.5 Z M 187.5 108.089844 C 187.5 104.714844 190.234375 101.980469 193.609375 101.980469 C 196.980469 101.980469 199.714844 104.714844 199.714844 108.089844 C 199.714844 111.464844 196.980469 114.199219 193.609375 114.199219 C 190.234375 114.199219 187.5 111.464844 187.5 108.089844 Z M 187.5 108.089844 " fill-opacity="1" fill-rule="nonzero"/></g></svg>