<svg width="1439" height="176" viewBox="0 0 1439 176" fill="none" xmlns="http://www.w3.org/2000/svg">
<g clip-path="url(#clip0_0_100)">
<path opacity="0.33" d="M758.88 57.5521C1052.5 -97.856 1137.74 117.392 1220.11 57.5521C1344.96 -33.616 1440 70.928 1440 70.928L1440 176L0 176L-9.18569e-06 70.9282C-9.18569e-06 70.9282 89.4239 24.9921 136.656 19.3601C183.888 13.5521 227.088 41.0081 245.808 58.2561C279.36 88.7042 366.768 160.688 439.344 167.728C511.92 174.768 730.944 72.1601 758.88 57.5521Z" fill="white"/>
<path opacity="0.66" d="M383.04 57.5521C448.56 57.5521 494.208 98.3841 568.944 126.368C610.128 141.68 785.376 144.144 934.704 57.5521C1084.03 -29.04 1066.75 118.096 1149.55 57.5521C1273.39 -32.208 1440 105.952 1440 105.952L1440 176L0 176L-5.61604e-06 111.76C-5.61604e-06 111.76 40.6079 144.32 132.624 144.32C273.312 144.144 322.992 57.5521 383.04 57.5521Z" fill="white"/>
<path d="M336.816 125.136C624.816 226.336 719.856 9.85607 905.76 90.8161C1091.52 172.832 1091.52 166.496 1173.89 139.744C1255.68 112.992 1249.49 96.9761 1310.54 83.6001C1398.82 63.888 1440 176 1440 176L0 176C0 176 14.2559 104.016 120.384 91.3442C226.512 78.6722 245.376 93.2802 336.816 125.136Z" fill="white"/>
</g>
<defs>
<clipPath id="clip0_0_100">
<rect width="1440" height="176" fill="white" transform="translate(1440 176) rotate(180)"/>
</clipPath>
</defs>
</svg>
