<svg xmlns="http://www.w3.org/2000/svg" viewBox="0 0 200 200"><path fill="white" d="M117.67 124.56h-6.88v-22.21L93.27 92.23l-17.51 10.12v22.21h-6.88V98.38l24.39-14.09 24.4 14.09v26.18z"></path><path fill="white" d="M117.67 124.56h-6.88V98.38l24.39-14.09 12.11 6.99-3.44 5.96-8.67-5.01-17.51 10.12v22.21zm-41.91 0h-6.88v-22.21l-6.89-3.98 3.44-5.96 10.33 5.97v26.18z"></path><path fill="white" d="M51.37 105.28a18.47 18.47 0 1118.47-18.47 18.49 18.49 0 01-18.47 18.47zm0-30.06A11.59 11.59 0 1063 86.81a11.61 11.61 0 00-11.63-11.59zm20.95 68.83a12.94 12.94 0 1112.93-12.93 12.94 12.94 0 01-12.93 12.93zm0-19a6.06 6.06 0 106.06 6.06 6.07 6.07 0 00-6.06-6.05zm62.86-54.31a12.93 12.93 0 1112.93-12.93 12.94 12.94 0 01-12.93 12.93zm0-19a6.06 6.06 0 106.06 6.06 6.06 6.06 0 00-6.06-6.05zm18.99 60.1a12.93 12.93 0 1112.93-12.93 12.94 12.94 0 01-12.93 12.93zm0-19a6.06 6.06 0 106.06 6.06 6.07 6.07 0 00-6.06-6.05zm-39.94 62.28a18.47 18.47 0 1118.47-18.47 18.48 18.48 0 01-18.47 18.47zm0-30.06a11.6 11.6 0 1011.59 11.59 11.6 11.6 0 00-11.59-11.59z"></path><path fill="white"  d="M131.74 67.3h6.88v20.96h-6.88z"></path></svg>