<svg xmlns="http://www.w3.org/2000/svg" xmlns:xlink="http://www.w3.org/1999/xlink" width="500" zoomAndPan="magnify" viewBox="0 0 375 374.999991" height="500" preserveAspectRatio="xMidYMid meet" version="1.0"><defs><clipPath id="163e95ca86"><path d="M 65.226562 65.226562 L 309.726562 65.226562 L 309.726562 309.726562 L 65.226562 309.726562 Z M 65.226562 65.226562 " clip-rule="nonzero"/></clipPath></defs><path fill="#ffffff" d="M 204.472656 97.605469 L 204.472656 168.226562 L 239.425781 168.226562 C 242.578125 168.226562 245.15625 170.808594 245.15625 173.957031 C 245.15625 175.105469 244.726562 176.25 244.152344 177.109375 L 184.703125 280.109375 L 184.703125 280.253906 C 183.125 282.976562 179.546875 283.835938 176.824219 282.257812 C 174.960938 281.253906 173.957031 279.25 173.957031 277.246094 L 173.957031 209.914062 L 135.566406 209.914062 C 132.414062 209.914062 129.835938 207.335938 129.835938 204.183594 C 129.835938 203.039062 130.121094 201.894531 130.839844 201.035156 L 193.726562 94.738281 C 195.445312 92.015625 198.882812 91.015625 201.605469 92.734375 C 203.46875 93.734375 204.472656 95.742188 204.472656 97.605469 Z M 193.011719 173.957031 L 193.011719 118.519531 L 145.59375 198.453125 L 179.6875 198.453125 C 182.839844 198.453125 185.417969 201.035156 185.417969 204.183594 L 185.417969 255.898438 L 229.539062 179.6875 L 198.742188 179.6875 C 195.589844 179.6875 193.011719 177.109375 193.011719 173.957031 Z M 193.011719 173.957031 " fill-opacity="1" fill-rule="nonzero"/><g clip-path="url(#163e95ca86)"><path fill="#ffffff" d="M 187.425781 65.226562 C 221.230469 65.226562 251.746094 78.980469 273.949219 101.042969 C 296.011719 123.101562 309.761719 153.757812 309.761719 187.425781 C 309.761719 221.230469 296.011719 251.746094 273.949219 273.949219 C 251.746094 296.011719 221.230469 309.761719 187.425781 309.761719 C 153.757812 309.761719 123.101562 296.011719 101.042969 273.949219 C 78.980469 251.746094 65.226562 221.230469 65.226562 187.425781 C 65.226562 153.757812 78.980469 123.101562 101.042969 101.042969 C 123.101562 78.980469 153.757812 65.226562 187.425781 65.226562 Z M 265.785156 109.207031 C 245.730469 89.152344 218.082031 76.6875 187.425781 76.6875 C 156.910156 76.6875 129.121094 89.152344 109.207031 109.207031 C 89.152344 129.121094 76.6875 156.910156 76.6875 187.425781 C 76.6875 218.082031 89.152344 245.730469 109.207031 265.785156 C 129.121094 285.839844 156.910156 298.304688 187.425781 298.304688 C 218.082031 298.304688 245.730469 285.839844 265.785156 265.785156 C 285.839844 245.730469 298.304688 218.082031 298.304688 187.425781 C 298.304688 156.910156 285.839844 129.121094 265.785156 109.207031 Z M 265.785156 109.207031 " fill-opacity="1" fill-rule="nonzero"/></g></svg>