<svg xmlns="http://www.w3.org/2000/svg" viewBox="0 0 200 200"><path fill="white" d="M130.05 59.44l-1.7-1a107.38 107.38 0 00-55-14.66h-3.41v23.91l3.3.13a100.53 100.53 0 0126 4.55c.83.26 1.66.54 2.49.82A36.74 36.74 0 0196.58 75c-8.42 2.12-14 2.38-22.21 2.72h-4.41v24.11l3.3.14a100.1 100.1 0 0126 4.54c.84.26 1.67.54 2.5.83a35.1 35.1 0 01-5.13 1.81c-8.42 2.13-14 2.39-22.21 2.73h-1L70 112v24h4.33a100.76 100.76 0 0150.43 16.67l5.34 3.54v-28.63l-1.7-1q-1.39-.82-2.82-1.59c1.49-.81 3-1.71 4.52-2.72V93.39l-1.7-1c-.94-.55-1.88-1.08-2.83-1.58 1.49-.82 3-1.72 4.53-2.73zm-28.78 6.37a107.08 107.08 0 00-24.44-4.67V50.7a99.27 99.27 0 0127.52 4.6 100.6 100.6 0 0118.83 8.12v12.07a108.28 108.28 0 00-21.91-9.68zm0 33.94l-1.14-.36a107.21 107.21 0 00-23.29-4.31V84.89a100 100 0 0127.52 4.6c1.08.34 2.15.7 3.22 1.09a97.1 97.1 0 019.75 4c2 .93 3.92 1.94 5.84 3v11.81a108.28 108.28 0 00-21.9-9.64zm21.91 43.88a108.28 108.28 0 00-21.91-9.63l-1.17-.36a107.26 107.26 0 00-23.27-4.31v-10.49a99.64 99.64 0 0127.52 4.6c1.21.38 2.41.78 3.61 1.22a96.73 96.73 0 019.67 4c1.88.9 3.72 1.85 5.54 2.87zm-5.4-22.45a106.75 106.75 0 00-11.36-4.3c-2-.62-3.92-1.17-5.9-1.67a78.53 78.53 0 009.67-4.22l.26-.13a100.59 100.59 0 0113.29 7.25 57.35 57.35 0 01-5.96 3.07zm0-34.2a106.59 106.59 0 00-11.35-4.3c-2-.62-3.92-1.17-5.9-1.67a78.53 78.53 0 009.67-4.22l.27-.13a100.47 100.47 0 0113.28 7.25 55.58 55.58 0 01-5.98 3.09z"></path></svg>