<svg xmlns="http://www.w3.org/2000/svg" xmlns:xlink="http://www.w3.org/1999/xlink" width="500" zoomAndPan="magnify" viewBox="0 0 375 374.999991" height="500" preserveAspectRatio="xMidYMid meet" version="1.0"><defs><clipPath id="b5ace6ad8c"><path d="M 67 232 L 310.492188 232 L 310.492188 326 L 67 326 Z M 67 232 " clip-rule="nonzero"/></clipPath><clipPath id="5620a399a1"><path d="M 175 118 L 194 118 L 194 249 L 175 249 Z M 175 118 " clip-rule="nonzero"/></clipPath><clipPath id="952792f5e3"><path d="M 113.855469 183.996094 L 182.183594 118.71875 L 250.054688 189.757812 L 181.726562 255.039062 Z M 113.855469 183.996094 " clip-rule="nonzero"/></clipPath><clipPath id="b17cf79196"><path d="M 113.855469 183.996094 L 182.183594 118.71875 L 250.054688 189.757812 L 181.726562 255.039062 Z M 113.855469 183.996094 " clip-rule="nonzero"/></clipPath><clipPath id="3ece7d8b2a"><path d="M 194 153.332031 L 263.488281 153.332031 L 263.488281 226 L 194 226 Z M 194 153.332031 " clip-rule="nonzero"/></clipPath><clipPath id="626eab76f4"><path d="M 149 54 L 212 54 L 212 158 L 149 158 Z M 149 54 " clip-rule="nonzero"/></clipPath><clipPath id="1d7893972f"><path d="M 121.242188 60.21875 L 226.339844 48.476562 L 237.746094 150.589844 L 132.652344 162.332031 Z M 121.242188 60.21875 " clip-rule="nonzero"/></clipPath><clipPath id="9057378cb2"><path d="M 121.242188 60.21875 L 226.339844 48.476562 L 237.746094 150.589844 L 132.652344 162.332031 Z M 121.242188 60.21875 " clip-rule="nonzero"/></clipPath><clipPath id="cec7df2b15"><path d="M 98 167 L 181 167 L 181 230 L 98 230 Z M 98 167 " clip-rule="nonzero"/></clipPath><clipPath id="a924ed4843"><path d="M 98.445312 167.417969 L 168.167969 149.453125 L 190.8125 237.335938 L 121.089844 255.300781 Z M 98.445312 167.417969 " clip-rule="nonzero"/></clipPath><clipPath id="394b26ef78"><path d="M 98.445312 167.417969 L 168.167969 149.453125 L 190.8125 237.335938 L 121.089844 255.300781 Z M 98.445312 167.417969 " clip-rule="nonzero"/></clipPath></defs><g clip-path="url(#b5ace6ad8c)"><path fill="#ffffff" d="M 292.707031 304.625 C 289.160156 304.460938 283.523438 302.371094 279.339844 301.644531 C 250.105469 294.960938 222.648438 314.039062 195.753906 322.898438 C 190.199219 324.753906 183.59375 326.445312 177.714844 325.71875 C 174.570312 325.3125 171.917969 324.1875 169.179688 322.65625 C 134.3125 301.5625 101.9375 278.207031 73.273438 249.136719 C 69.167969 245.4375 64.496094 237.949219 69.804688 233.679688 C 74.722656 230.296875 81.484375 232.878906 85.992188 236.011719 C 96.21875 242.9375 115.386719 255.421875 124.328125 263.308594 C 127.0625 266.695312 126.820312 270.960938 128.59375 275.390625 C 129.800781 278.613281 132.539062 281.992188 135.121094 283.519531 C 143.171875 287.625 161.617188 286.582031 174.175781 286.824219 C 182.871094 286.824219 189.632812 286.417969 197.609375 284.410156 C 200.914062 283.449219 205.019531 282.636719 207.835938 281.1875 C 208.160156 280.785156 205.820312 280.863281 202.523438 280.863281 C 185.375 280.863281 163.148438 280.839844 147.769531 280.703125 C 142.507812 280.65625 142.621094 280.863281 140.441406 279.902344 C 138.109375 278.777344 136.253906 276.679688 134.96875 274.347656 C 132.390625 269.675781 133.679688 263.316406 137.785156 260.011719 C 143.988281 254.863281 167.421875 255.503906 177.640625 254.214844 C 196.242188 253.488281 211.464844 242.863281 229.253906 239.074219 C 254.859375 233.761719 279.257812 243.261719 302.773438 251.640625 C 305.1875 252.523438 309.9375 253.890625 310.261719 255.746094 C 310.503906 256.628906 310.261719 257.679688 309.9375 258.5625 C 307.445312 265.570312 301.082031 283.527344 297.136719 294.800781 C 295.929688 298.265625 294.964844 301.085938 294.320312 302.695312 C 293.996094 303.496094 293.515625 304.386719 292.625 304.46875 L 292.625 304.632812 L 292.707031 304.632812 Z M 292.707031 304.625 " fill-opacity="1" fill-rule="nonzero"/></g><g clip-path="url(#5620a399a1)"><g clip-path="url(#952792f5e3)"><g clip-path="url(#b17cf79196)"><path fill="#ffffff" d="M 190.105469 247.160156 C 185.484375 247.570312 180.199219 248.386719 175.582031 248.476562 C 175.457031 248.476562 175.390625 248.328125 175.476562 248.238281 C 177 246.597656 177.675781 243.417969 178.113281 242.050781 C 191.148438 198.40625 179.441406 160.046875 181.96875 118.953125 C 185.574219 150.460938 192.480469 183.585938 193.011719 215.296875 C 193.195312 223.953125 192.253906 233.226562 191.039062 241.933594 C 191.039062 241.933594 190.503906 245.503906 190.105469 247.164062 Z M 190.105469 247.160156 " fill-opacity="1" fill-rule="nonzero"/></g></g></g><g clip-path="url(#3ece7d8b2a)"><path fill="#ffffff" d="M 262.898438 153.382812 C 263.363281 157.65625 262.386719 163.066406 261.613281 167.289062 C 255.894531 199.476562 242.148438 238.152344 201.152344 222.1875 L 240.855469 179.90625 L 198.113281 217.601562 C 193.015625 206.273438 193.582031 190.773438 201.410156 180.417969 C 215.109375 162.191406 243.742188 162.292969 262.898438 153.332031 Z M 262.898438 153.382812 " fill-opacity="1" fill-rule="nonzero"/></g><g clip-path="url(#626eab76f4)"><g clip-path="url(#1d7893972f)"><g clip-path="url(#9057378cb2)"><path fill="#ffffff" d="M 173.410156 54.390625 C 200.429688 80.832031 235.054688 128.671875 189.578125 156.242188 C 191.007812 135.410156 183.910156 115.292969 178.609375 95.511719 L 177.785156 157.5625 C 129.898438 137.511719 153.703125 86.355469 173.410156 54.390625 Z M 173.410156 54.390625 " fill-opacity="1" fill-rule="nonzero"/></g></g></g><g clip-path="url(#cec7df2b15)"><g clip-path="url(#a924ed4843)"><g clip-path="url(#394b26ef78)"><path fill="#ffffff" d="M 98.453125 167.453125 C 120.167969 171.285156 149.421875 163.914062 167.839844 179.125 C 177.792969 187.367188 182.238281 202.707031 180.113281 215.21875 L 127.453125 188.429688 L 178.769531 220.46875 C 136.75 251.035156 110.425781 201.085938 98.453125 167.453125 Z M 98.453125 167.453125 " fill-opacity="1" fill-rule="nonzero"/></g></g></g></svg>